# xmcd
#
# Track frame offsets:
#	150
#	18725
#	35527
#	54155
#	72307
#	90370
#	106138
#	124101
#	143562
#	158875
#	182440
#	199344
#	218746
#	235206
#	257300
#	274167
#	297501
#
# Disc length: 4201 seconds
#
# Revision: 0
# Processed by: cddbd v1.5.2PL0 Copyright (c) Steve Scherf et al.
# Submitted via: audiograbber 1.83.01
#
DISCID=ed106711
DTITLE=Weather Girls, The - We can stand together
DYEAR=1993
DGENRE=Soul
TTITLE0=We're gonna party
TTITLE1=Sweet thang
TTITLE2=I just want you (to dance to the music)
TTITLE3=Can u feel it (dee ooh la la la)
TTITLE4=Sexy ghost
TTITLE5=Big boy
TTITLE6=Still I'm free
TTITLE7=Happy-happy
TTITLE8=Boogie nights
TTITLE9=Here goes my heart
TTITLE10=Love somebody tonite
TTITLE11=I need your love
TTITLE12=I want to take you higher
TTITLE13=Can't let you go
TTITLE14=Melody of unity
TTITLE15=It's raining men
TTITLE16=We can stand together
EXTD=
EXTT0=
EXTT1=
EXTT2=
EXTT3=
EXTT4=
EXTT5=
EXTT6=
EXTT7=
EXTT8=
EXTT9=
EXTT10=
EXTT11=
EXTT12=
EXTT13=
EXTT14=
EXTT15=
EXTT16=
PLAYORDER=
